<svg width="67" height="8" viewBox="0 0 67 8" fill="none" xmlns="http://www.w3.org/2000/svg">
<path d="M5.087 6.37457V7.8465H0V0.227783H1.71921V6.37457H5.087Z" fill="#247CC0"/>
<path d="M6.19415 0.227783H7.91337V7.8465H6.19415V0.227783Z" fill="#247CC0"/>
<path d="M14.778 7.8465C14.2835 6.97512 13.7536 6.11551 13.1883 5.2559C12.6113 4.40807 12.0108 3.60734 11.3631 2.84194V7.83472H9.66748V0.227783H11.0688C11.316 0.475068 11.5751 0.769451 11.8695 1.12271C12.1639 1.47598 12.4583 1.8528 12.7644 2.25316C13.0706 2.65353 13.3767 3.06567 13.6711 3.50136C13.9773 3.92527 14.2599 4.33742 14.519 4.73778V0.227783H16.2264V7.8465H14.778Z" fill="#247CC0"/>
<path d="M22.479 7.8465C22.3259 7.59922 22.1375 7.32838 21.9373 7.04577C21.7254 6.76316 21.5016 6.46877 21.2544 6.17439C21.0071 5.88 20.7598 5.59739 20.489 5.33833C20.2299 5.0675 19.9591 4.83199 19.7 4.63181V7.85828H17.9808V0.227783H19.7V3.08922C20.1357 2.62997 20.5949 2.13541 21.0424 1.64084C21.5016 1.13449 21.9138 0.663475 22.3024 0.227783H24.3395C23.8214 0.840107 23.3033 1.44065 22.7734 2.00587C22.2435 2.5711 21.6901 3.1481 21.1131 3.72509C21.7254 4.23144 22.3142 4.83198 22.8794 5.53851C23.4446 6.23326 23.9863 7.01045 24.5162 7.8465H22.479Z" fill="#247CC0"/>
<path d="M25.5062 7.8465V0.227783H30.652V1.66439H27.2254V3.15987H30.2752V4.57293H27.2254V6.4099H30.9111V7.8465H25.5062Z" fill="#247CC0"/>
<path d="M38.8475 4.0319C38.8475 4.69132 38.7416 5.26832 38.5414 5.76289C38.3412 6.25746 38.0468 6.65783 37.67 6.98754C37.2932 7.30548 36.8339 7.55276 36.2922 7.71761C35.7506 7.88247 35.1383 7.9649 34.4671 7.9649C34.1609 7.9649 33.7959 7.95313 33.3837 7.92958C32.9716 7.90602 32.5712 7.84714 32.1708 7.76472V0.334408C32.5712 0.263755 32.9833 0.216647 33.4073 0.181321C33.8312 0.15777 34.208 0.145996 34.5142 0.145996C35.1618 0.145996 35.7624 0.216652 36.2922 0.369733C36.8221 0.511038 37.2814 0.746543 37.6582 1.06448C38.035 1.38242 38.3294 1.78279 38.5414 2.27736C38.7416 2.74838 38.8475 3.33714 38.8475 4.0319ZM33.8901 6.44586C33.9725 6.45764 34.0667 6.45764 34.1727 6.45764C34.2786 6.45764 34.4082 6.45764 34.5495 6.45764C35.4091 6.45764 36.045 6.24569 36.4571 5.80999C36.8692 5.3743 37.0812 4.78553 37.0812 4.02012C37.0812 3.21939 36.881 2.61884 36.4924 2.2067C36.0921 1.79456 35.468 1.59438 34.6084 1.59438C34.4906 1.59438 34.3729 1.59438 34.2433 1.59438C34.1138 1.59438 33.996 1.60615 33.8901 1.61793V6.44586Z" fill="#247CC0"/>
<path d="M45.6766 0.227783V1.68794H43.3804V7.8465H41.6612V1.68794H39.365V0.227783H45.6766Z" fill="#247CC0"/>
<path d="M46.7838 7.8465V0.227783H51.9296V1.66439H48.503V3.15987H51.5528V4.57293H48.503V6.4099H52.1887V7.8465H46.7838Z" fill="#247CC0"/>
<path d="M56.9221 8.00013C55.6857 8.00013 54.7437 7.65865 54.0842 6.9639C53.4366 6.26915 53.1069 5.29178 53.1069 4.03181C53.1069 3.39593 53.2011 2.84249 53.4013 2.34792C53.6014 1.85335 53.8723 1.42943 54.2138 1.09972C54.5553 0.758234 54.9674 0.49917 55.4502 0.322538C55.9212 0.145906 56.4393 0.0634766 57.0045 0.0634766C57.3225 0.0634766 57.6169 0.0870318 57.8877 0.134134C58.1468 0.181235 58.3823 0.240108 58.5825 0.298986C58.7826 0.357863 58.9475 0.42852 59.077 0.487397C59.2066 0.55805 59.3008 0.60515 59.3596 0.640477L58.8651 2.02998C58.6296 1.90045 58.3587 1.79447 58.0408 1.71204C57.7346 1.62961 57.3696 1.58251 56.981 1.58251C56.7219 1.58251 56.4629 1.62961 56.2038 1.71204C55.9565 1.79447 55.7328 1.93578 55.5326 2.13596C55.3324 2.33614 55.1793 2.58342 55.0616 2.88959C54.9438 3.19575 54.885 3.57256 54.885 4.00825C54.885 4.36152 54.9203 4.69123 55.0027 4.99739C55.0851 5.30356 55.2029 5.56262 55.3795 5.78635C55.5562 6.01008 55.7799 6.17494 56.0507 6.30447C56.3333 6.434 56.6631 6.49288 57.0634 6.49288C57.3107 6.49288 57.5344 6.4811 57.7346 6.44577C57.9348 6.42222 58.1114 6.3869 58.2645 6.3398C58.4176 6.30447 58.5589 6.25737 58.6767 6.19849C58.7944 6.15139 58.9004 6.10429 58.9946 6.05719L59.4656 7.43491C59.2183 7.57622 58.8769 7.71752 58.4412 7.83528C58.0055 7.94126 57.4991 8.00013 56.9221 8.00013Z" fill="#247CC0"/>
<path d="M65.1769 0.227783H66.8961V7.8465H65.1769V4.60825H62.2919V7.8465H60.5727V0.227783H62.2919V3.14809H65.1769V0.227783Z" fill="#247CC0"/>
</svg>
